# xmcd CD database file
# Copyright (C) 1993-1998 Ti Kan
#
# Track frame offsets:
#  182
#  14437
#  28870
#  48167
#  63152
#  74857
#  89497
#  102755
#  115500
#  129225
#
# Disc length: 1902 seconds
#
# Revision: 1
# Processed by: cddbd v1.4b41PL1 Copyright (c) Steve Scherf et al.
# Submitted via: CDWizzard Release:4.35
#
DISCID=81076c0a
DTITLE=Rich McCready - That Just About Coves It
DYEAR=1900
DGENRE=
TTITLE0=That Just About Covers It
TTITLE1=More Like Decmber
TTITLE2=Oh Jealous Heart
TTITLE3=One Good Love
TTITLE4=Let Me Take That Ol' Heartache
TTITLE5=Thanks A Lot
TTITLE6=One OF Those Nights
TTITLE7=Doing Her Right (where I Done Wrong)
TTITLE8=What That Means
TTITLE9=Leave A Little Something Behind
EXTD=
EXTT0=
EXTT1=
EXTT2=
EXTT3=
EXTT4=
EXTT5=
EXTT6=
EXTT7=
EXTT8=
EXTT9=
PLAYORDER=
